<?xml version="1.0" encoding="utf-8"?>
<!-- Generator: Adobe Illustrator 19.0.0, SVG Export Plug-In . SVG Version: 6.00 Build 0)  -->
<svg version="1.1" id="Layer_1" xmlns="http://www.w3.org/2000/svg" xmlns:xlink="http://www.w3.org/1999/xlink" x="0px" y="0px"
	 viewBox="-329 146 301 270" style="enable-background:new -329 146 301 270;" xml:space="preserve">
<style type="text/css">
	.st0{fill:url(#SVGID_1_);stroke:#990066;stroke-width:7;stroke-miterlimit:10;}
	.st1{fill:url(#SVGID_2_);stroke:url(#SVGID_3_);stroke-width:4;stroke-miterlimit:10;}
	.st2{fill:url(#SVGID_4_);stroke:url(#SVGID_5_);stroke-width:2;stroke-miterlimit:10;}
	.st3{fill:url(#SVGID_6_);stroke:url(#SVGID_7_);stroke-miterlimit:10;}
</style>
<g id="background">

</g>

<radialGradient id="SVGID_1_" cx="-504.1657" cy="349.9319" r="87.9749" gradientTransform="matrix(4.5038 0 0 -4.8262 1959.205 2075.2729)" gradientUnits="userSpaceOnUse">
	<stop  offset="0.4462" style="stop-color:#AA005E"/>
	<stop  offset="0.572" style="stop-color:#A5005B"/>
	<stop  offset="0.723" style="stop-color:#960053"/>
	<stop  offset="0.8863" style="stop-color:#7E0046"/>
	<stop  offset="0.9946" style="stop-color:#6A003B"/>
</radialGradient>
<path class="st0" d="M-176.8,406.8c-83.3-54.3-136.7-122.5-139.3-178.6c-1.3-26.1,8.8-48.5,29-64.7c10.5-8.5,22-12.8,33.9-12.8
	c39.3,0,73.3,45.8,73.6,46.3l2.9,3.9l2.9-3.9c0.3-0.5,34.4-46.3,73.6-46.3c11.9,0,23.3,4.3,33.9,12.8c20.2,16.2,30.2,38.6,29,64.7
	C-40.2,284.3-93.4,352.5-176.8,406.8z"/>
<radialGradient id="SVGID_2_" cx="-503.2828" cy="350.1767" r="85.3752" gradientTransform="matrix(4.2428 0 0 -4.6613 1835.4471 2013.9646)" gradientUnits="userSpaceOnUse">
	<stop  offset="0.4462" style="stop-color:#AA005E"/>
	<stop  offset="0.572" style="stop-color:#A5005B"/>
	<stop  offset="0.723" style="stop-color:#960053"/>
	<stop  offset="0.8863" style="stop-color:#7E0046"/>
	<stop  offset="0.9946" style="stop-color:#6A003B"/>
</radialGradient>
<radialGradient id="SVGID_3_" cx="-176.8601" cy="280.9667" r="125.8521" gradientUnits="userSpaceOnUse">
	<stop  offset="2.472235e-03" style="stop-color:#E9FF7F"/>
	<stop  offset="0.5404" style="stop-color:#FF00B9"/>
	<stop  offset="0.9897" style="stop-color:#FF7F94"/>
</radialGradient>
<path class="st1" d="M-176.8,400.8c-76.2-50.9-125-114.8-127.4-167.4c-1.2-24.5,8-45.4,26.5-60.6c9.6-7.9,20.1-12,31-12
	c35.9,0,67,43,67.3,43.3l2.6,3.7l2.6-3.7c0.3-0.5,31.4-43.3,67.3-43.3c10.9,0,21.3,4.1,31,12c18.5,15.2,27.6,36.2,26.5,60.6
	C-51.9,285.9-100.6,349.9-176.8,400.8z"/>
<radialGradient id="SVGID_4_" cx="-503.2828" cy="350.648" r="85.3752" gradientTransform="matrix(3.825 0 0 -4.2435 1637.2867 1858.6078)" gradientUnits="userSpaceOnUse">
	<stop  offset="0.4462" style="stop-color:#AA005E"/>
	<stop  offset="0.572" style="stop-color:#A5005B"/>
	<stop  offset="0.723" style="stop-color:#960053"/>
	<stop  offset="0.8863" style="stop-color:#7E0046"/>
	<stop  offset="0.9946" style="stop-color:#6A003B"/>
</radialGradient>
<radialGradient id="SVGID_5_" cx="-176.8601" cy="278.6684" r="124.8033" gradientTransform="matrix(0.9015 0 0 0.9104 -17.4162 25.1665)" gradientUnits="userSpaceOnUse">
	<stop  offset="2.472235e-03" style="stop-color:#E9FF7F"/>
	<stop  offset="0.5404" style="stop-color:#FF00B9"/>
	<stop  offset="0.9897" style="stop-color:#FF7F94"/>
</radialGradient>
<path class="st2" d="M-176.8,388c-68.7-46.3-112.7-104.6-114.9-152.4c-1.1-22.3,7.2-41.4,23.9-55.2c8.7-7.2,18.1-10.9,27.9-10.9
	c32.4,0,60.4,39.1,60.6,39.5l2.4,3.4l2.4-3.4c0.2-0.4,28.3-39.5,60.6-39.5c9.8,0,19.2,3.7,27.9,10.9c16.6,13.8,24.9,32.9,23.9,55.2
	C-64.2,283.4-108.1,341.7-176.8,388z"/>
<radialGradient id="SVGID_6_" cx="-499.7484" cy="354.7009" r="74.969" gradientTransform="matrix(3.825 0 0 -4.2435 1637.2867 1858.6078)" gradientUnits="userSpaceOnUse">
	<stop  offset="0.4462" style="stop-color:#AA005E"/>
	<stop  offset="0.572" style="stop-color:#A5005B"/>
	<stop  offset="0.723" style="stop-color:#960053"/>
	<stop  offset="0.8863" style="stop-color:#7E0046"/>
	<stop  offset="0.9946" style="stop-color:#6A003B"/>
</radialGradient>
<radialGradient id="SVGID_7_" cx="-176.8601" cy="272.0269" r="109.1948" gradientTransform="matrix(0.9015 0 0 0.9104 -17.4162 25.1665)" gradientUnits="userSpaceOnUse">
	<stop  offset="2.472235e-03" style="stop-color:#E9FF7F"/>
	<stop  offset="0.5404" style="stop-color:#FF00B9"/>
	<stop  offset="0.9897" style="stop-color:#FF7F94"/>
</radialGradient>
<path class="st3" d="M-176.8,368.7c-60.3-40.7-98.9-91.8-100.9-133.8c-0.9-19.6,6.3-36.3,21-48.5c7.6-6.3,15.9-9.6,24.5-9.6
	c28.4,0,53,34.4,53.2,34.7l2.1,2.9l2.1-2.9c0.2-0.4,24.9-34.7,53.2-34.7c8.6,0,16.9,3.2,24.5,9.6c14.6,12.2,21.9,28.9,21,48.5
	C-77.9,276.9-116.5,328-176.8,368.7z"/>
</svg>
